<svg xmlns="http://www.w3.org/2000/svg" width="980" height="430" viewBox="0 0 980 430" role="img">

  <style>
    text { font-family: Arial, Helvetica, sans-serif; fill: #1f252b; }
    .title { font-size: 22px; font-weight: 700; }
    .subtitle { font-size: 13px; fill: #53606a; }
    .axis { font-size: 12px; fill: #53606a; }
    .label { font-size: 13px; }
    .value { font-size: 12px; font-weight: 700; }
    .grid { stroke: #d9dee3; stroke-width: 1; }
    .axis-line { stroke: #6b747c; stroke-width: 1.2; }
  </style>
<rect width="980" height="430" fill="#ffffff"/>
<text x="40" y="36" class="title">Activation QDQ sensitivity</text>
<text x="40" y="58" class="subtitle">Delta mAP50-95 vs A8W8 baseline, sample100</text>
<line x1="210.0" y1="66" x2="210.0" y2="368" class="grid"/>
<text x="210.0" y="392" text-anchor="middle" class="axis">+0.00</text>
<line x1="410.0" y1="66" x2="410.0" y2="368" class="grid"/>
<text x="410.0" y="392" text-anchor="middle" class="axis">+0.01</text>
<line x1="610.0" y1="66" x2="610.0" y2="368" class="grid"/>
<text x="610.0" y="392" text-anchor="middle" class="axis">+0.02</text>
<line x1="810.0" y1="66" x2="810.0" y2="368" class="grid"/>
<text x="810.0" y="392" text-anchor="middle" class="axis">+0.03</text>
<line x1="210" y1="368" x2="810" y2="368" class="axis-line"/>
<text x="40" y="99" class="label">A8W8 baseline</text>
<rect x="210" y="78" width="0.0" height="30" rx="4" fill="#596fb7"/>
<text x="222.0" y="98" class="value">+0.0000 (0.5174)</text>
<text x="40" y="147" class="label">Late neck float</text>
<rect x="210" y="126" width="127.7" height="30" rx="4" fill="#637383"/>
<text x="347.7" y="146" class="value">+0.0064 (0.5238)</text>
<text x="40" y="195" class="label">Head conv float</text>
<rect x="210" y="174" width="306.1" height="30" rx="4" fill="#4b8b3b"/>
<text x="526.1" y="194" class="value">+0.0153 (0.5327)</text>
<text x="40" y="243" class="label">All conv out float</text>
<rect x="210" y="222" width="406.1" height="30" rx="4" fill="#b47a2a"/>
<text x="626.1" y="242" class="value">+0.0203 (0.5377)</text>
<text x="40" y="291" class="label">All act float</text>
<rect x="210" y="270" width="531.6" height="30" rx="4" fill="#2f6f73"/>
<text x="751.6" y="290" class="value">+0.0266 (0.5440)</text>
<text x="40" y="339" class="label">A16W8 reference</text>
<rect x="210" y="318" width="548.5" height="30" rx="4" fill="#7a5ca8"/>
<text x="768.5" y="338" class="value">+0.0274 (0.5449)</text>
<text x="810" y="416" text-anchor="end" class="axis">delta mAP50-95</text>
</svg>
