<svg xmlns="http://www.w3.org/2000/svg" width="960" height="430" viewBox="0 0 960 430" role="img">

  <style>
    text { font-family: Arial, Helvetica, sans-serif; fill: #1f252b; }
    .title { font-size: 22px; font-weight: 700; }
    .subtitle { font-size: 13px; fill: #53606a; }
    .axis { font-size: 12px; fill: #53606a; }
    .label { font-size: 13px; }
    .value { font-size: 12px; font-weight: 700; }
    .grid { stroke: #d9dee3; stroke-width: 1; }
    .axis-line { stroke: #6b747c; stroke-width: 1.2; }
  </style>
<rect width="960" height="430" fill="#ffffff"/>
<text x="40" y="36" class="title">Full COCO accuracy</text>
<text x="40" y="58" class="subtitle">COCO val 5000, mAP50-95, CUDAExecutionProvider</text>
<line x1="190.0" y1="66" x2="190.0" y2="368" class="grid"/>
<text x="190.0" y="392" text-anchor="middle" class="axis">0.0</text>
<line x1="337.6" y1="66" x2="337.6" y2="368" class="grid"/>
<text x="337.6" y="392" text-anchor="middle" class="axis">0.1</text>
<line x1="485.2" y1="66" x2="485.2" y2="368" class="grid"/>
<text x="485.2" y="392" text-anchor="middle" class="axis">0.2</text>
<line x1="632.9" y1="66" x2="632.9" y2="368" class="grid"/>
<text x="632.9" y="392" text-anchor="middle" class="axis">0.3</text>
<line x1="780.5" y1="66" x2="780.5" y2="368" class="grid"/>
<text x="780.5" y="392" text-anchor="middle" class="axis">0.4</text>
<line x1="190" y1="368" x2="810" y2="368" class="axis-line"/>
<text x="40" y="99" class="label">FP32</text>
<rect x="190" y="78" width="586.2" height="30" rx="4" fill="#2f6f73"/>
<text x="786.2" y="98" class="value">0.3971</text>
<text x="40" y="147" class="label">Naive INT8</text>
<rect x="190" y="126" width="0.0" height="30" rx="4" fill="#8c3b3b"/>
<text x="200.0" y="146" class="value">0.0000</text>
<text x="40" y="195" class="label">A8W8 QDQ</text>
<rect x="190" y="174" width="552.2" height="30" rx="4" fill="#596fb7"/>
<text x="752.2" y="194" class="value">0.3740</text>
<text x="40" y="243" class="label">A16W8 QDQ</text>
<rect x="190" y="222" width="579.0" height="30" rx="4" fill="#4b8b3b"/>
<text x="779.0" y="242" class="value">0.3923</text>
<text x="40" y="291" class="label">A8W16 QDQ</text>
<rect x="190" y="270" width="567.3" height="30" rx="4" fill="#b47a2a"/>
<text x="767.3" y="290" class="value">0.3843</text>
<text x="40" y="339" class="label">A16W16 QDQ</text>
<rect x="190" y="318" width="583.3" height="30" rx="4" fill="#7a5ca8"/>
<text x="783.3" y="338" class="value">0.3952</text>
<text x="810" y="416" text-anchor="end" class="axis">mAP50-95</text>
</svg>
